<svg xmlns="http://www.w3.org/2000/svg" viewBox="0 0 256 256">
  <defs>
    <linearGradient id="grad1" x1="0%" y1="0%" x2="100%" y2="100%">
      <stop offset="0%" style="stop-color:#2196F3;stop-opacity:1" />
      <stop offset="100%" style="stop-color:#00BCD4;stop-opacity:1" />
    </linearGradient>
    <linearGradient id="grad2" x1="0%" y1="0%" x2="100%" y2="100%">
      <stop offset="0%" style="stop-color:#4CAF50;stop-opacity:1" />
      <stop offset="100%" style="stop-color:#8BC34A;stop-opacity:1" />
    </linearGradient>
  </defs>
  <rect x="88" y="80" width="80" height="96" rx="4" fill="#ffffff" stroke="#E0E0E0" stroke-width="3"/>
  <rect x="88" y="80" width="80" height="20" rx="4" fill="#E0E0E0"/>
  <line x1="100" y1="120" x2="156" y2="120" stroke="#BDBDBD" stroke-width="4" stroke-linecap="round"/>
  <line x1="100" y1="136" x2="156" y2="136" stroke="#BDBDBD" stroke-width="4" stroke-linecap="round"/>
  <line x1="100" y1="152" x2="140" y2="152" stroke="#BDBDBD" stroke-width="4" stroke-linecap="round"/>
  <path d="M 200 100 A 80 80 0 0 1 180 180" fill="none" stroke="url(#grad1)" stroke-width="12" stroke-linecap="round"/>
  <path d="M 190 170 L 180 180 L 170 170" fill="none" stroke="url(#grad1)" stroke-width="12" stroke-linecap="round" stroke-linejoin="round"/>
  <path d="M 56 156 A 80 80 0 0 1 76 76" fill="none" stroke="url(#grad2)" stroke-width="12" stroke-linecap="round"/>
  <path d="M 66 86 L 76 76 L 86 86" fill="none" stroke="url(#grad2)" stroke-width="12" stroke-linecap="round" stroke-linejoin="round"/>
</svg>